<?xml version="1.0" encoding="utf-8"?>
<!-- Generator: Adobe Illustrator 27.0.0, SVG Export Plug-In . SVG Version: 6.00 Build 0)  -->
<svg version="1.1" id="Layer_1" xmlns="http://www.w3.org/2000/svg" xmlns:xlink="http://www.w3.org/1999/xlink" x="0px" y="0px"
	 viewBox="0 0 187.14 158.78" style="enable-background:new 0 0 187.14 158.78;" xml:space="preserve">
<style type="text/css">
	.st0{fill:#2D2D2D;}
	.st1{fill:#FEB511;}
</style>
<g>
	<g>
		<path class="st0" d="M3305.43,523.18c1.93,0,1.93-3,0-3C3303.5,520.18,3303.49,523.18,3305.43,523.18L3305.43,523.18z"/>
	</g>
</g>
<g>
	<path class="st0" d="M141.81,39.73h-8.98c-4.72-17.89-20.51-31.02-39.26-31.02S59.03,21.84,54.31,39.73h-8.98
		C50.29,16.7,70.1,0,93.57,0C117.04,0,136.84,16.7,141.81,39.73z"/>
	<g>
		<path class="st1" d="M123.59,64.53c-0.45-0.44-1.06-0.72-1.74-0.72c-1.36,0-2.46,1.1-2.46,2.46v27.05c0,1.36,1.1,2.46,2.46,2.46
			c1.35,0,2.46-1.1,2.46-2.46V66.27C124.31,65.59,124.03,64.97,123.59,64.53z"/>
		<path class="st1" d="M161.13,48.06c-0.69-0.85-1.71-1.33-2.8-1.33H28.8c-1.09,0-2.11,0.48-2.8,1.33
			c-0.69,0.84-0.96,1.94-0.74,3.01l11.79,57.62c0.25,1.22,1.11,2.2,2.22,2.63h108.6c1.11-0.43,1.97-1.41,2.22-2.63l11.79-57.62
			C162.09,50,161.82,48.9,161.13,48.06z M67.75,93.32c0,1.36-1.1,2.46-2.46,2.46s-2.46-1.1-2.46-2.46V66.27
			c0-1.36,1.1-2.46,2.46-2.46c0.68,0,1.3,0.28,1.74,0.72c0.44,0.44,0.72,1.06,0.72,1.74V93.32z M86.6,93.32
			c0,1.36-1.1,2.46-2.46,2.46s-2.46-1.1-2.46-2.46V66.27c0-1.36,1.1-2.46,2.46-2.46c0.68,0,1.29,0.28,1.74,0.72
			c0.45,0.44,0.72,1.06,0.72,1.74V93.32z M105.45,93.32c0,1.36-1.1,2.46-2.46,2.46c-1.35,0-2.45-1.1-2.45-2.46V66.27
			c0-1.36,1.1-2.46,2.45-2.46c0.68,0,1.3,0.28,1.74,0.72c0.44,0.44,0.72,1.06,0.72,1.74V93.32z M124.31,93.32
			c0,1.36-1.11,2.46-2.46,2.46c-1.36,0-2.46-1.1-2.46-2.46V66.27c0-1.36,1.1-2.46,2.46-2.46c0.68,0,1.29,0.28,1.74,0.72
			c0.44,0.44,0.72,1.06,0.72,1.74V93.32z"/>
	</g>
	<g>
		<path class="st0" d="M168.73,52.47l-11.78,57.62c-0.09,0.42-0.2,0.83-0.34,1.23h-8.74c1.11-0.43,1.97-1.41,2.22-2.63l11.79-57.62
			c0.21-1.07-0.06-2.17-0.75-3.01c-0.69-0.85-1.71-1.33-2.8-1.33H28.8c-1.09,0-2.11,0.48-2.8,1.33c-0.69,0.84-0.96,1.94-0.74,3.01
			l11.79,57.62c0.25,1.22,1.11,2.2,2.22,2.63h-8.74c-0.14-0.4-0.25-0.81-0.34-1.23L18.4,52.47c-0.64-3.14,0.15-6.36,2.18-8.84
			c2.02-2.48,5.02-3.9,8.22-3.9h129.53c3.21,0,6.2,1.42,8.23,3.9C168.58,46.11,169.37,49.33,168.73,52.47z"/>
	</g>
	<g>
		<g>
			<g>
				<path class="st0" d="M11.77,138.85c-0.34-0.63-0.83-1.19-1.48-1.67c-0.65-0.48-1.42-0.92-2.32-1.33
					c-0.84-0.39-1.51-0.72-2.02-0.99c-0.51-0.27-0.89-0.54-1.13-0.81c-0.23-0.26-0.35-0.57-0.35-0.93c0-0.44,0.17-0.81,0.51-1.1
					c0.34-0.29,0.86-0.43,1.56-0.43c0.66,0,1.34,0.1,2.05,0.29c0.71,0.2,1.47,0.48,2.29,0.83l1.38-3.39
					c-0.87-0.36-1.76-0.66-2.66-0.91c-0.9-0.25-1.88-0.37-2.94-0.37c-1.95,0-3.53,0.45-4.71,1.35c-1.18,0.9-1.77,2.21-1.77,3.91
					c0,1.07,0.21,1.95,0.63,2.64c0.43,0.69,0.98,1.26,1.65,1.71c0.67,0.46,1.37,0.84,2.08,1.17c1.09,0.51,1.94,0.95,2.53,1.31
					c0.6,0.37,0.9,0.84,0.9,1.42c0,0.48-0.19,0.87-0.57,1.19c-0.37,0.31-0.98,0.47-1.81,0.47c-0.88,0-1.81-0.15-2.77-0.43
					c-0.96-0.29-1.9-0.65-2.82-1.08v3.96c0.8,0.37,1.62,0.66,2.47,0.84c0.86,0.19,1.82,0.28,2.89,0.28c1.55,0,2.84-0.24,3.86-0.72
					c1.02-0.49,1.79-1.15,2.3-2c0.51-0.84,0.76-1.78,0.76-2.82C12.28,140.29,12.11,139.49,11.77,138.85z"/>
				<path class="st0" d="M34.45,128.29v6.98h-6.54v-6.98h-4.37v18.24h4.37v-7.66h6.54v7.66h4.34v-18.24H34.45z"/>
				<path class="st0" d="M67.11,132.45c-0.61-1.41-1.56-2.5-2.85-3.27c-1.28-0.78-2.94-1.17-4.96-1.17c-2.03,0-3.69,0.39-4.98,1.17
					c-1.3,0.77-2.26,1.85-2.88,3.25c-0.62,1.4-0.93,3.04-0.93,4.93s0.31,3.54,0.93,4.96c0.62,1.41,1.58,2.51,2.88,3.29
					c1.29,0.78,2.94,1.17,4.95,1.17c2.03,0,3.69-0.39,4.98-1.17c1.29-0.78,2.25-1.88,2.86-3.28c0.61-1.41,0.92-3.05,0.92-4.94
					S67.72,133.85,67.11,132.45z M62.5,141.6c-0.64,1.02-1.71,1.53-3.23,1.53c-1.48,0-2.55-0.51-3.2-1.53
					c-0.66-1.02-0.99-2.43-0.99-4.21c0-1.79,0.33-3.2,0.99-4.23c0.65-1.03,1.73-1.54,3.23-1.54c1.49,0,2.56,0.51,3.2,1.54
					c0.64,1.03,0.96,2.44,0.96,4.23C63.46,139.17,63.14,140.58,62.5,141.6z"/>
				<path class="st0" d="M90.98,129.81c-1.12-1.01-2.84-1.52-5.17-1.52h-6.06v18.24h4.35v-6.28h1.53c1.75,0,3.14-0.3,4.16-0.89
					c1.02-0.58,1.75-1.35,2.2-2.29c0.44-0.95,0.66-1.96,0.66-3.03C92.65,132.24,92.09,130.83,90.98,129.81z M87.4,136.11
					c-0.57,0.39-1.29,0.59-2.16,0.59H84.1v-4.86h1.55c0.89,0,1.54,0.2,1.97,0.61c0.43,0.39,0.64,0.97,0.64,1.72
					C88.26,135.07,87.97,135.72,87.4,136.11z"/>
				<path class="st0" d="M115.24,129.81c-1.12-1.01-2.84-1.52-5.17-1.52h-6.06v18.24h4.35v-6.28h1.53c1.75,0,3.14-0.3,4.16-0.89
					c1.02-0.58,1.75-1.35,2.2-2.29c0.44-0.95,0.66-1.96,0.66-3.03C116.91,132.24,116.35,130.83,115.24,129.81z M111.66,136.11
					c-0.57,0.39-1.29,0.59-2.16,0.59h-1.14v-4.86h1.55c0.89,0,1.54,0.2,1.97,0.61c0.43,0.39,0.64,0.97,0.64,1.72
					C112.52,135.07,112.23,135.72,111.66,136.11z"/>
				<path class="st0" d="M138.92,131.82v-3.53h-10.65v18.24h10.65v-3.58h-6.3v-4.11h5.84v-3.52h-5.84v-3.5H138.92z"/>
				<path class="st0" d="M160.33,138.59c0.93-0.46,1.71-1.09,2.33-1.89s0.93-1.79,0.93-2.97c0-3.62-2.45-5.44-7.35-5.44h-5.62v18.24
					h4.34v-6.85h1.71l4.11,6.85h4.88L160.33,138.59z M158.4,135.71c-0.52,0.39-1.3,0.58-2.34,0.58h-1.1v-4.57h1.1
					c1.09,0,1.88,0.18,2.38,0.53c0.49,0.36,0.74,0.91,0.74,1.64C159.18,134.72,158.92,135.33,158.4,135.71z"/>
				<path class="st0" d="M186.63,138.85c-0.34-0.63-0.83-1.19-1.48-1.67s-1.42-0.92-2.33-1.33c-0.83-0.39-1.5-0.72-2.01-0.99
					c-0.51-0.27-0.89-0.54-1.13-0.81c-0.24-0.26-0.36-0.57-0.36-0.93c0-0.44,0.18-0.81,0.52-1.1c0.34-0.29,0.86-0.43,1.55-0.43
					c0.67,0,1.35,0.1,2.06,0.29c0.71,0.2,1.47,0.48,2.28,0.83l1.38-3.39c-0.86-0.36-1.75-0.66-2.65-0.91
					c-0.9-0.25-1.88-0.37-2.94-0.37c-1.96,0-3.53,0.45-4.71,1.35c-1.18,0.9-1.78,2.21-1.78,3.91c0,1.07,0.22,1.95,0.64,2.64
					c0.43,0.69,0.98,1.26,1.65,1.71c0.67,0.46,1.37,0.84,2.08,1.17c1.09,0.51,1.93,0.95,2.53,1.31c0.6,0.37,0.89,0.84,0.89,1.42
					c0,0.48-0.18,0.87-0.56,1.19c-0.37,0.31-0.98,0.47-1.81,0.47c-0.89,0-1.81-0.15-2.77-0.43c-0.96-0.29-1.91-0.65-2.82-1.08v3.96
					c0.8,0.37,1.62,0.66,2.47,0.84c0.86,0.19,1.82,0.28,2.89,0.28c1.55,0,2.83-0.24,3.86-0.72c1.02-0.49,1.78-1.15,2.29-2
					c0.51-0.84,0.77-1.78,0.77-2.82C187.14,140.29,186.97,139.49,186.63,138.85z"/>
			</g>
		</g>
		<g>
			<g>
				<path class="st0" d="M5.06,151.06l-2.36,4.41l-2.38-4.41H0l2.57,4.73v2.89h0.27v-2.94l2.55-4.68H5.06z"/>
				<path class="st0" d="M13.6,151.97c-0.57-0.68-1.38-1.03-2.43-1.03c-0.73,0-1.34,0.17-1.85,0.5c-0.51,0.33-0.9,0.79-1.16,1.38
					c-0.26,0.58-0.4,1.26-0.4,2.03c0,0.77,0.13,1.45,0.38,2.04c0.25,0.59,0.62,1.05,1.11,1.39c0.5,0.34,1.11,0.5,1.85,0.5
					c0.76,0,1.38-0.16,1.88-0.5c0.49-0.33,0.86-0.79,1.11-1.38c0.24-0.59,0.36-1.27,0.36-2.04
					C14.45,153.62,14.17,152.66,13.6,151.97z M13.84,156.76c-0.22,0.56-0.55,0.98-1,1.3c-0.45,0.3-1.03,0.46-1.73,0.46
					c-0.68,0-1.26-0.16-1.71-0.48c-0.46-0.31-0.8-0.75-1.02-1.3c-0.22-0.55-0.33-1.18-0.33-1.89c0-0.71,0.12-1.33,0.35-1.88
					c0.22-0.55,0.57-0.98,1.03-1.29c0.46-0.31,1.04-0.47,1.74-0.47c0.96,0,1.7,0.32,2.22,0.95c0.52,0.64,0.78,1.54,0.78,2.7
					C14.17,155.58,14.06,156.21,13.84,156.76z"/>
				<path class="st0" d="M23.37,151.06v5.02c0,0.81-0.23,1.42-0.68,1.83c-0.46,0.4-1.07,0.61-1.83,0.61c-0.8,0-1.42-0.22-1.86-0.65
					c-0.43-0.43-0.65-1.07-0.65-1.92v-4.89h-0.28v4.91c0,0.92,0.24,1.62,0.73,2.1c0.48,0.48,1.16,0.71,2.04,0.71
					c0.56,0,1.05-0.1,1.47-0.3c0.42-0.2,0.75-0.51,0.98-0.92c0.24-0.41,0.36-0.94,0.36-1.57v-4.93H23.37z"/>
				<path class="st0" d="M30.36,155.19c0.54-0.14,0.96-0.39,1.27-0.74c0.3-0.35,0.45-0.81,0.45-1.37c0-0.53-0.1-0.94-0.31-1.23
					c-0.21-0.29-0.51-0.5-0.91-0.61c-0.4-0.12-0.9-0.18-1.49-0.18h-1.7v7.62h0.28v-3.42h2.11l2.04,3.42h0.35L30.36,155.19z
					 M29.69,155h-1.74v-3.67h1.37c0.55,0,1.01,0.05,1.38,0.15c0.37,0.1,0.64,0.29,0.82,0.54c0.18,0.26,0.27,0.61,0.27,1.07
					c0,0.6-0.19,1.07-0.58,1.41C30.81,154.83,30.31,155,29.69,155z"/>
				<path class="st0" d="M39.37,151.06v0.27h2.53v7.35h0.27v-7.35h2.54v-0.27H39.37z"/>
				<path class="st0" d="M50.44,155.19c0.54-0.14,0.97-0.39,1.27-0.74c0.3-0.35,0.45-0.81,0.45-1.37c0-0.53-0.1-0.94-0.31-1.23
					c-0.21-0.29-0.51-0.5-0.91-0.61c-0.4-0.12-0.9-0.18-1.49-0.18h-1.7v7.62h0.28v-3.42h2.11l2.04,3.42h0.35L50.44,155.19z
					 M49.77,155h-1.74v-3.67h1.37c0.55,0,1.01,0.05,1.38,0.15c0.37,0.1,0.64,0.29,0.82,0.54c0.18,0.26,0.27,0.61,0.27,1.07
					c0,0.6-0.19,1.07-0.58,1.41C50.89,154.83,50.39,155,49.77,155z"/>
				<path class="st0" d="M61.05,151.06v5.02c0,0.81-0.23,1.42-0.69,1.83c-0.46,0.4-1.07,0.61-1.83,0.61c-0.8,0-1.41-0.22-1.85-0.65
					s-0.66-1.07-0.66-1.92v-4.89h-0.27v4.91c0,0.92,0.24,1.62,0.72,2.1c0.49,0.48,1.17,0.71,2.05,0.71c0.56,0,1.04-0.1,1.46-0.3
					c0.42-0.2,0.75-0.51,0.99-0.92s0.36-0.94,0.36-1.57v-4.93H61.05z"/>
				<path class="st0" d="M69.18,155.75c-0.19-0.25-0.45-0.46-0.79-0.62c-0.33-0.16-0.73-0.31-1.19-0.45
					c-0.36-0.12-0.69-0.24-0.99-0.37c-0.31-0.13-0.55-0.31-0.72-0.54c-0.18-0.23-0.27-0.53-0.27-0.92c0-0.38,0.1-0.69,0.29-0.93
					c0.2-0.24,0.46-0.42,0.78-0.53s0.66-0.17,1.04-0.17c0.29,0,0.58,0.03,0.88,0.08c0.31,0.05,0.62,0.15,0.95,0.29l0.11-0.24
					c-0.31-0.14-0.62-0.24-0.94-0.31c-0.32-0.06-0.64-0.09-0.98-0.09c-0.44,0-0.85,0.08-1.22,0.22c-0.37,0.14-0.66,0.35-0.87,0.64
					c-0.22,0.28-0.33,0.64-0.33,1.07c0,0.41,0.09,0.75,0.27,1c0.18,0.26,0.44,0.46,0.76,0.61c0.32,0.15,0.68,0.3,1.1,0.43
					c0.44,0.14,0.81,0.28,1.13,0.42c0.32,0.15,0.56,0.33,0.73,0.55c0.17,0.22,0.26,0.5,0.26,0.86c0,0.41-0.11,0.75-0.31,1.01
					c-0.21,0.26-0.48,0.45-0.82,0.57c-0.33,0.13-0.71,0.19-1.11,0.19c-0.44,0-0.82-0.04-1.16-0.1c-0.34-0.07-0.65-0.15-0.93-0.25
					v0.31c0.25,0.07,0.54,0.14,0.86,0.2c0.31,0.07,0.71,0.1,1.21,0.1c0.46,0,0.88-0.07,1.27-0.21c0.39-0.15,0.7-0.37,0.93-0.68
					c0.23-0.3,0.35-0.68,0.35-1.13C69.47,156.34,69.37,156,69.18,155.75z"/>
				<path class="st0" d="M71.98,151.06v0.27h2.53v7.35h0.28v-7.35h2.54v-0.27H71.98z"/>
				<path class="st0" d="M84.48,151.33v-0.27h-4.11v7.62h4.11v-0.27h-3.83v-3.61h3.61v-0.27h-3.61v-3.2H84.48z"/>
				<path class="st0" d="M92.85,152.02c-0.61-0.64-1.54-0.96-2.8-0.96h-1.89v7.62h1.64c1.34,0,2.33-0.33,2.98-0.99
					c0.66-0.66,0.98-1.62,0.98-2.89C93.76,153.59,93.46,152.66,92.85,152.02z M89.83,158.41h-1.39v-7.08h1.5
					c1.24,0,2.14,0.29,2.69,0.89c0.56,0.59,0.84,1.45,0.84,2.59C93.47,157.21,92.26,158.41,89.83,158.41z"/>
				<path class="st0" d="M107.57,151.97c-0.57-0.68-1.38-1.03-2.44-1.03c-0.72,0-1.34,0.17-1.85,0.5s-0.89,0.79-1.16,1.38
					c-0.26,0.58-0.39,1.26-0.39,2.03c0,0.77,0.12,1.45,0.37,2.04c0.25,0.59,0.62,1.05,1.12,1.39c0.49,0.34,1.11,0.5,1.85,0.5
					c0.75,0,1.38-0.16,1.87-0.5c0.5-0.33,0.87-0.79,1.11-1.38c0.25-0.59,0.37-1.27,0.37-2.04
					C108.42,153.62,108.13,152.66,107.57,151.97z M107.81,156.76c-0.22,0.56-0.55,0.98-1.01,1.3c-0.45,0.3-1.02,0.46-1.72,0.46
					c-0.69,0-1.26-0.16-1.72-0.48c-0.45-0.31-0.79-0.75-1.01-1.3c-0.22-0.55-0.33-1.18-0.33-1.89c0-0.71,0.11-1.33,0.34-1.88
					c0.23-0.55,0.57-0.98,1.03-1.29c0.47-0.31,1.05-0.47,1.74-0.47c0.96,0,1.7,0.32,2.22,0.95c0.52,0.64,0.78,1.54,0.78,2.7
					C108.13,155.58,108.02,156.21,107.81,156.76z"/>
				<path class="st0" d="M117.08,151.06v6.15c0,0.27,0.01,0.55,0.01,0.82h-0.02l-4.73-6.97h-0.22v7.62h0.28v-6.16
					c0-0.25,0-0.52-0.01-0.83h0.02l4.75,6.99h0.2v-7.62H117.08z"/>
				<path class="st0" d="M121.77,158.41v-7.35h-0.28v7.62h4.09v-0.27H121.77z"/>
				<path class="st0" d="M130.09,151.27v-0.21h-1.73v0.21l0.73,0.05v7.11l-0.73,0.04v0.21h1.73v-0.21l-0.73-0.04v-7.11
					L130.09,151.27z"/>
				<path class="st0" d="M138.71,151.06v6.15c0,0.27,0.01,0.55,0.01,0.82h-0.02l-4.74-6.97h-0.21v7.62h0.28v-6.16
					c0-0.25-0.01-0.52-0.01-0.83h0.02l4.75,6.99h0.2v-7.62H138.71z"/>
				<path class="st0" d="M147.22,151.33v-0.27h-4.1v7.62h4.1v-0.27h-3.82v-3.61h3.61v-0.27h-3.61v-3.2H147.22z"/>
				<path class="st0" d="M159.44,155.75c-0.19-0.25-0.46-0.46-0.79-0.62c-0.34-0.16-0.74-0.31-1.19-0.45c-0.37-0.12-0.7-0.24-1-0.37
					s-0.54-0.31-0.72-0.54c-0.18-0.23-0.27-0.53-0.27-0.92c0-0.38,0.1-0.69,0.29-0.93c0.2-0.24,0.46-0.42,0.78-0.53
					s0.67-0.17,1.04-0.17c0.29,0,0.58,0.03,0.88,0.08c0.31,0.05,0.62,0.15,0.95,0.29l0.12-0.24c-0.32-0.14-0.63-0.24-0.95-0.31
					c-0.31-0.06-0.64-0.09-0.97-0.09c-0.45,0-0.86,0.08-1.23,0.22c-0.36,0.14-0.65,0.35-0.87,0.64c-0.22,0.28-0.33,0.64-0.33,1.07
					c0,0.41,0.09,0.75,0.28,1c0.18,0.26,0.43,0.46,0.75,0.61c0.32,0.15,0.68,0.3,1.1,0.43c0.44,0.14,0.82,0.28,1.13,0.42
					c0.32,0.15,0.56,0.33,0.73,0.55c0.17,0.22,0.26,0.5,0.26,0.86c0,0.41-0.1,0.75-0.31,1.01c-0.2,0.26-0.48,0.45-0.82,0.57
					c-0.33,0.13-0.7,0.19-1.11,0.19c-0.44,0-0.82-0.04-1.16-0.1c-0.34-0.07-0.65-0.15-0.93-0.25v0.31c0.26,0.07,0.54,0.14,0.86,0.2
					c0.31,0.07,0.72,0.1,1.21,0.1c0.46,0,0.89-0.07,1.27-0.21c0.39-0.15,0.7-0.37,0.93-0.68c0.23-0.3,0.35-0.68,0.35-1.13
					C159.72,156.34,159.62,156,159.44,155.75z"/>
				<path class="st0" d="M168.37,151.06v3.48h-4.78v-3.48h-0.27v7.62h0.27v-3.87h4.78v3.87h0.28v-7.62H168.37z"/>
				<path class="st0" d="M178.18,151.97c-0.57-0.68-1.38-1.03-2.44-1.03c-0.72,0-1.34,0.17-1.85,0.5s-0.89,0.79-1.16,1.38
					c-0.26,0.58-0.39,1.26-0.39,2.03c0,0.77,0.13,1.45,0.37,2.04c0.25,0.59,0.62,1.05,1.12,1.39c0.49,0.34,1.11,0.5,1.85,0.5
					c0.75,0,1.38-0.16,1.87-0.5c0.5-0.33,0.87-0.79,1.11-1.38c0.25-0.59,0.37-1.27,0.37-2.04
					C179.03,153.62,178.75,152.66,178.18,151.97z M178.42,156.76c-0.22,0.56-0.55,0.98-1.01,1.3c-0.45,0.3-1.02,0.46-1.72,0.46
					c-0.69,0-1.26-0.16-1.72-0.48c-0.45-0.31-0.79-0.75-1.01-1.3c-0.22-0.55-0.33-1.18-0.33-1.89c0-0.71,0.11-1.33,0.34-1.88
					c0.23-0.55,0.57-0.98,1.04-1.29c0.46-0.31,1.04-0.47,1.73-0.47c0.96,0,1.7,0.32,2.22,0.95c0.52,0.64,0.78,1.54,0.78,2.7
					C178.74,155.58,178.63,156.21,178.42,156.76z"/>
				<path class="st0" d="M186.46,151.55c-0.45-0.33-1.1-0.49-1.94-0.49h-1.79v7.62h0.28v-3.26h1.36c0.56,0,1.05-0.07,1.46-0.22
					c0.42-0.15,0.74-0.39,0.97-0.73c0.23-0.34,0.34-0.78,0.34-1.33C187.14,152.4,186.91,151.87,186.46,151.55z M186.54,154.37
					c-0.21,0.29-0.51,0.5-0.88,0.61c-0.38,0.12-0.82,0.18-1.31,0.18h-1.34v-3.83h1.46c0.81,0,1.41,0.14,1.8,0.42
					c0.39,0.29,0.58,0.76,0.58,1.4C186.85,153.67,186.75,154.08,186.54,154.37z"/>
			</g>
		</g>
	</g>
	<rect y="111.32" class="st0" width="187.14" height="7.07"/>
	<g>
		<g>
			<path class="st0" d="M67.75,66.27v27.05c0,1.36-1.1,2.46-2.46,2.46s-2.46-1.1-2.46-2.46V66.27c0-1.36,1.1-2.46,2.46-2.46
				c0.68,0,1.3,0.28,1.74,0.72C67.47,64.97,67.75,65.59,67.75,66.27z"/>
			<path class="st0" d="M86.6,66.27v27.05c0,1.36-1.1,2.46-2.46,2.46s-2.46-1.1-2.46-2.46V66.27c0-1.36,1.1-2.46,2.46-2.46
				c0.68,0,1.29,0.28,1.74,0.72C86.33,64.97,86.6,65.59,86.6,66.27z"/>
			<path class="st0" d="M105.45,66.27v27.05c0,1.36-1.1,2.46-2.46,2.46c-1.35,0-2.45-1.1-2.45-2.46V66.27c0-1.36,1.1-2.46,2.45-2.46
				c0.68,0,1.3,0.28,1.74,0.72C105.17,64.97,105.45,65.59,105.45,66.27z"/>
			<g>
				<path class="st0" d="M124.31,66.27v27.05c0,1.36-1.11,2.46-2.46,2.46c-1.36,0-2.46-1.1-2.46-2.46V66.27
					c0-1.36,1.1-2.46,2.46-2.46c0.68,0,1.29,0.28,1.74,0.72C124.03,64.97,124.31,65.59,124.31,66.27z"/>
			</g>
		</g>
	</g>
</g>
</svg>
